<svg width="24" height="40" fill="none" xmlns="http://www.w3.org/2000/svg"><path d="M11.969 0C5.48 0 .203 5.278.203 11.766v16.468C.203 34.722 5.481 40 11.97 40s11.766-5.278 11.766-11.766V11.766C23.735 5.278 18.457 0 11.969 0zm9.366 28.234c0 5.164-4.202 9.366-9.366 9.366s-9.366-4.202-9.366-9.366V11.766c0-5.164 4.202-9.366 9.366-9.366s9.366 4.202 9.366 9.366v16.468z" fill="#D4C17F"/><path d="M11.97 7.957a1.2 1.2 0 00-1.2 1.2v5.523a1.2 1.2 0 002.4 0V9.157a1.2 1.2 0 00-1.2-1.2z" fill="#D4C17F"/></svg>